<svg id="_0014_book_lover" xmlns="http://www.w3.org/2000/svg" viewBox="0 0 500 500" data-imageid="book-lover-33" imageName="Book Lover" class="illustrations_image" style="width: 184px;"><defs><style>.cls-1,.cls-2,.cls-3{fill:#fff;}.cls-4{fill:#f4a28c;}.cls-5{fill:#a5a5a5;}.cls-6{fill:#e6e6e6;}.cls-2{opacity:.37;}.cls-7{fill:#ce8172;opacity:.31;}.cls-8{opacity:.58;}.cls-8,.cls-9,.cls-10{fill:#68e1fd;}.cls-3{opacity:.2;}.cls-11{opacity:.02;}.cls-11,.cls-12{fill:#000001;}.cls-13{fill:#24285b;}.cls-12{opacity:.08;}.cls-9{opacity:.73;}.cls-14{fill:#ffd200;}</style></defs><ellipse id="sd" class="cls-11" cx="252.93" cy="448.53" rx="193.42" ry="33.97"/><g id="plant"><path class="cls-8" d="m343.88,55.42s-19.36-5.2-23.64-23.18c0,0,29.94-6.18,30.92,24.74l-7.28-1.56Z"/><path class="cls-9" d="m346.24,53.49s-13.6-21.3-1.79-41.32c0,0,22.84,14.37,12.83,41.32h-11.04Z"/><path class="cls-10" d="m349.72,53.49s7.04-22.59,28.6-26.95c0,0,4.11,14.63-13.86,26.95h-14.74Z"/><polygon class="cls-13" points="335.7 53.04 339.73 79.85 364.42 79.85 367.94 53.04 335.7 53.04"/></g><g id="shelf"><rect class="cls-6" x="184.33" y="79.85" width="213.57" height="368.68"/><rect class="cls-1" x="218.5" y="323.12" width="14.87" height="54.54" transform="translate(-122.27 121.1) rotate(-23.82)"/><rect class="cls-12" x="207.9" y="105.05" width="165.34" height="80.68"/><rect class="cls-1" x="244.22" y="226.93" width="14.01" height="54.54"/><path class="cls-12" d="m217.89,162.52s23.15.1,30.41,47.86c7.25,47.75-4.07,140.89-63.96,212.8v-141.7l33.56-118.96Z"/><rect class="cls-12" x="207.9" y="200.79" width="165.34" height="80.68"/><rect class="cls-5" x="353.78" y="131.58" width="14.87" height="54.54" transform="translate(32.89 -60.04) rotate(9.95)"/><rect class="cls-5" x="264.24" y="131.65" width="14.1" height="54.54" transform="translate(31.55 -44.5) rotate(9.95)"/><rect class="cls-6" x="281.27" y="130.75" width="14.28" height="54.54" transform="translate(31.65 -47.47) rotate(9.95)"/><rect class="cls-1" x="266.85" y="226.06" width="14.1" height="54.54" transform="translate(47.91 -43.53) rotate(9.95)"/><rect class="cls-6" x="281.27" y="226.35" width="14.28" height="54.54" transform="translate(48.17 -46.03) rotate(9.95)"/><rect class="cls-6" x="247.74" y="130.75" width="14.28" height="54.54" transform="translate(31.15 -41.67) rotate(9.95)"/><rect class="cls-5" x="300.28" y="131.19" width="15.94" height="54.54"/><rect class="cls-1" x="318.46" y="131.19" width="14.01" height="54.54"/><rect class="cls-12" x="207.9" y="297.86" width="165.34" height="80.68"/><rect class="cls-5" x="353.78" y="323.12" width="14.87" height="54.54" transform="translate(66 -57.16) rotate(9.95)"/><rect class="cls-5" x="316.37" y="324" width="15.94" height="54.54"/><rect class="cls-1" x="334.55" y="324" width="14.01" height="54.54"/><rect class="cls-5" x="353.21" y="226.06" width="14.87" height="54.54" transform="translate(49.21 -58.52) rotate(9.95)"/><rect class="cls-5" x="299.94" y="226.93" width="15.94" height="54.54"/><rect class="cls-1" x="318.12" y="226.93" width="14.01" height="54.54"/><rect class="cls-5" x="207.9" y="397.26" width="165.34" height="34.58"/><circle class="cls-1" cx="290.58" cy="412.51" r="5.44"/><rect class="cls-1" x="283.07" y="322.97" width="14.1" height="54.54" transform="translate(64.9 -44.87) rotate(9.95)"/><rect class="cls-6" x="297.49" y="323.26" width="14.28" height="54.54" transform="translate(65.17 -47.38) rotate(9.95)"/><rect class="cls-5" x="254.67" y="322.97" width="14.1" height="54.54" transform="translate(64.47 -39.96) rotate(9.95)"/><rect class="cls-6" x="269.09" y="323.26" width="14.28" height="54.54" transform="translate(64.74 -42.47) rotate(9.95)"/></g><g id="reader"><path class="cls-10" d="m106.2,430.78s-4.34,6.18-10.67,5.01c-6.33-1.17-9.61,4.44-4.47,7.54,5.14,3.1,21.44-.13,21.44-.13l2.04-9.04-8.34-3.37Z"/><path class="cls-10" d="m101.25,155.28s-25.73,8.84-33.43,44.66c-7.71,35.81-17.23,62.11,0,72.08,17.23,9.97,39.97-27.36,39.97-27.36l-6.53-89.38Z"/><path class="cls-3" d="m107.79,244.66l-6.53-89.38s-25.73,8.84-33.43,44.66"/><path class="cls-10" d="m149.81,137.67s65.35,0,73.06,36.28c7.71,36.27-34,144.62-34,144.62l-73.78-3.17s3.08-40.35-8.04-72.99c-11.12-32.64-52.51-91.14,42.76-104.73Z"/><path class="cls-12" d="m184.33,178.31s-20.73,20.89-10.27,53.98c10.46,33.09-61.57,32.2-61.57,32.2,0,0,1.97,11.66,2.42,20.9,0,0,31.26,23.66,79.68,17.58l2.91-8.29,12.42-30.49-25.58-85.88Z"/><path class="cls-4" d="m105.41,101.52s4.34,13.3,10.13,20.91c2.35,3.09,6.82,3.69,9.88,1.3,3.79-2.97,8.06-8.08,6.59-15.49l-.93-12.88s-.87-8.05-10.35-10.18c-9.48-2.13-18.37,8.37-15.32,16.34Z"/><polygon class="cls-4" points="133.86 102.53 149.81 137.67 129.05 153.07 124.92 120.01 133.86 102.53"/><path class="cls-13" d="m108.83,100.7c2.3-.84,6.42-2.61,11.48-5.96,0,0-1.64,7.32,5.01,11.78,6.65,4.46,12.04-1,12.04-1l-7.24-16.45c-1.96-4.86-6.41-8.28-11.62-8.87-2.13-.24-4.44-.39-6.67-.35-5.57.11-11.2,6.26-16.83,4.86-2.47-.61-4.7,1.66-4.06,4.13,1.4,5.35,5.66,12.88,13.64,12.74,1.46-.03,2.88-.38,4.25-.88Z"/><path class="cls-4" d="m123.78,106.72s-2.01-5,1.87-6.2c3.89-1.2,6.84,6,2.06,8.82l-3.93-2.62Z"/><path class="cls-4" d="m108.58,109.76l-1.48,6.48c-.36,1.6,1.06,3.04,2.66,2.69l5.32-1.17-6.5-8Z"/><path class="cls-7" d="m125.42,123.73s4.75-6.52,4.77-10.72c0,0,6.39,12.19-3.3,22.76l-1.47-12.04Z"/><polygon class="cls-14" points="49.84 184.83 66.16 250.11 107.04 265.83 144.13 238.02 137.36 169.11 96.98 199.94 49.84 184.83"/><polygon class="cls-14" points="96.98 199.94 59.51 171.53 62.75 188.97 96.98 199.94"/><polygon class="cls-2" points="96.98 199.94 59.51 171.53 62.75 188.97 96.98 199.94"/><path class="cls-12" d="m141,206.17s-13.15,31.6-37.18,38.49c-24.03,6.89-39.93-3.6-39.93-3.6l2.26,9.05,40.89,15.72,37.09-27.81-3.13-31.84Z"/><path class="cls-10" d="m190.33,167.13c8.95-10.4,25.83-7.55,31.19,5.07,8.83,20.76,18.93,57.63,3.83,97.6-23.12,61.2-114.29-6.35-114.29-6.35l13.7-14.96s48,22.67,67.04,10.88c15.93-9.86-25.15-64.74-1.48-92.24Z"/><path class="cls-3" d="m190.33,167.13c8.95-10.4,25.83-7.55,31.19,5.07,8.83,20.76,18.93,57.63,3.83,97.6-23.12,61.2-114.29-6.35-114.29-6.35l13.7-14.96s48,22.67,67.04,10.88c15.93-9.86-25.15-64.74-1.48-92.24Z"/><path class="cls-4" d="m112.95,261.4s-15.96-3.13-17.17-15.82c-1.21-12.69,17.53,6.04,20.85,0,3.32-6.04,9.62-6.25,8.13,2.92l-11.82,12.9Z"/><path class="cls-4" d="m93.03,196.94s5.33-20.88,14.01-22.7c5.21-1.09,4.43,2.72,2.98,5.94-1.36,3.01-1.93,6.31-1.49,9.58l.17,1.22-11.72,8.95-3.95-2.99Z"/><polygon class="cls-14" points="96.98 199.94 125.86 155.28 129.15 175.38 96.98 199.94"/><polygon class="cls-2" points="96.98 199.94 125.86 155.28 129.15 175.38 96.98 199.94"/><path class="cls-10" d="m171.05,404.53s5.6,5.05,3.68,11.2c-1.93,6.14,3.24,10.08,6.94,5.35,3.7-4.72,2.47-21.3,2.47-21.3l-8.73-3.12-4.36,7.87Z"/><polygon class="cls-1" points="108.81 204.75 110.35 218.26 131.99 200.78 130.37 188.37 108.81 204.75"/><path class="cls-13" d="m114.54,434.15l-12.47-3.37,35.29-98.76-14.1-16.28,65.6,2.82s0,18.16-15.81,30.66c-6.07,4.8-11.69,10.11-16.43,16.22-10.34,13.37-27.22,37.4-42.08,68.71Z"/><path class="cls-13" d="m115.08,315.39l-1.97,48.13c-.37,9.11,4.72,17.57,12.94,21.51l46.03,22.04,4.51-11.12-26.77-19.45c-7.1-5.16-10.04-14.32-7.26-22.64l12.24-36.76-39.72-1.71Z"/></g></svg>